<svg xmlns="http://www.w3.org/2000/svg" viewBox="0 0 2833.16 342.66"><defs><style>.cls-1{fill:#22264f;}</style></defs><g id="Camada_2" data-name="Camada 2"><g id="Camada_1-2" data-name="Camada 1"><path class="cls-1" d="M119.31,245.55a321.39,321.39,0,0,0,44.87,14q11.52,2.7,23.3,4.56T211.2,267a324.09,324.09,0,0,0,48.19.46,333.14,333.14,0,0,0,48.33-6.7,336.43,336.43,0,0,1-47.13,14.73,336.14,336.14,0,0,1-49.36,7.76q-12.54,1.06-25.2,1.16t-25.36-.7a351,351,0,0,1-50.66-7l-.09,0a16.31,16.31,0,1,1,6.8-31.9A16.88,16.88,0,0,1,119.31,245.55Z"/><path class="cls-1" d="M199.78,214.1a181.08,181.08,0,0,0,30.39,16.82,171.2,171.2,0,0,0,16.41,6.19,173,173,0,0,0,17,4.58c2.88.68,5.79,1.13,8.7,1.69l4.39.77c1.46.25,2.94.44,4.41.67q8.85,1.23,17.86,1.61a186.15,186.15,0,0,0,36.22-2.09,189.47,189.47,0,0,1-35.93,8.29q-9.24,1.19-18.64,1.49c-3.12.09-6.26.11-9.4,0s-6.28-.3-9.4-.64a186.45,186.45,0,0,1-18.74-2.64,182.93,182.93,0,0,1-18.49-4.48,199.86,199.86,0,0,1-35.54-14.29l0,0a10.51,10.51,0,0,1,9.66-18.66C199,213.63,199.44,213.88,199.78,214.1Z"/><path class="cls-1" d="M271.1,198.76a122.62,122.62,0,0,0,20.31,14.56,120.69,120.69,0,0,0,23.2,10.23A127.3,127.3,0,0,0,365.88,229a130.91,130.91,0,0,1-53,1.68,129.73,129.73,0,0,1-26.2-7.43,134.74,134.74,0,0,1-24.45-12.81l0,0a7.36,7.36,0,1,1,8.12-12.27A8.25,8.25,0,0,1,271.1,198.76Z"/><path class="cls-1" d="M267.1,132.88A531.5,531.5,0,0,0,441.68,160a545.91,545.91,0,0,1-181.39.35,14.2,14.2,0,1,1,6.81-27.48Z"/><path class="cls-1" d="M20.67,304.42c55.59,7.05,112.39,6.62,167.81-3a519.39,519.39,0,0,0,81.8-21.17c13.37-4.63,26.62-9.71,39.53-15.37s25.65-12,38.12-18.74c49.88-27,95-63,134.85-104.22S554.46,52,579.42,0a595.72,595.72,0,0,1-38.85,77.52,487.89,487.89,0,0,1-51,70.59q-14.31,16.48-29.71,32c-10.28,10.36-20.94,20.29-31.95,29.9s-22.48,18.74-34.26,27.45-24,16.92-36.51,24.59-25.32,14.87-38.51,21.53S292,296.18,278.34,301.73a545.29,545.29,0,0,1-84.43,26.68c-7.2,1.73-14.48,3.09-21.75,4.55-7.3,1.25-14.6,2.59-21.94,3.58-14.67,2.13-29.43,3.75-44.23,4.71a632.2,632.2,0,0,1-89-.32,18.35,18.35,0,0,1,2.68-36.61l.91.09Z"/><path class="cls-1" d="M989.5,14.93v312.8H949.24V131.5L837.71,289.58h-.84L727.43,137V327.73H688V14.93h.42L837.71,226.26,989.08,14.93Z"/><path class="cls-1" d="M1190.76,283.29l18,28.93a121.06,121.06,0,0,1-30,14.46,100.77,100.77,0,0,1-31.24,5.25q-28.93,0-50.52-11.95a83.89,83.89,0,0,1-33.34-32.92q-11.74-21-11.74-47.38a88.65,88.65,0,0,1,12.79-46.75,92.77,92.77,0,0,1,35-33.55A98.39,98.39,0,0,1,1148.41,147q34,0,56.82,19.92t31.24,55.56l-137.54,48.22A54.44,54.44,0,0,0,1119.27,291q12.78,7.35,29.14,7.34Q1170.21,298.38,1190.76,283.29Zm-84.7-88.48q-15.51,16.78-15.51,42.77a81.24,81.24,0,0,0,.42,9.65l101-37.32a57.85,57.85,0,0,0-17.82-23.07q-11.54-8.81-28.72-8.8Q1121.57,178,1106.06,194.81Z"/><path class="cls-1" d="M1466.24,2.77v325h-39.41V300.48A88.9,88.9,0,0,1,1396,323.54a94.77,94.77,0,0,1-40,8.39q-24.32,0-44-11.74a81.37,81.37,0,0,1-30.82-32.92Q1270,266.11,1270,238.42q0-28.08,11.74-48.85A79.08,79.08,0,0,1,1314,157.91q20.55-10.89,46.55-10.9a91.8,91.8,0,0,1,37.94,8.18q18.24,8.17,28.73,22.43V2.77Zm-59.75,283.45q15.72-12.15,20.34-32.7V220.81A54.82,54.82,0,0,0,1405.44,190a61.6,61.6,0,0,0-37.32-12,58.17,58.17,0,0,0-50.73,29.14,63.17,63.17,0,0,0,0,61.43,59,59,0,0,0,21.38,21.8,56.35,56.35,0,0,0,29.35,8Q1390.77,298.38,1406.49,286.22Z"/><path class="cls-1" d="M1784.49,24.57,1650.73,342,1517,24.57h48.22L1652.41,243l84.28-218.46Z"/><path class="cls-1" d="M1833.55,76.15a24,24,0,0,1,16.35-6.29,23.23,23.23,0,0,1,16.15,6.29,20.85,20.85,0,0,1,0,31,23.27,23.27,0,0,1-16.15,6.29,24,24,0,0,1-16.35-6.29,20.45,20.45,0,0,1,0-31Zm34.8,78V327.73h-39V154.14Z"/><path class="cls-1" d="M2114.48,154.14V327.73h-39V299.22q-9.22,12.16-26.84,22.43t-39.83,10.28q-24.75,0-44.66-10.7A77.74,77.74,0,0,1,1932.71,290q-11.54-20.55-11.53-49.06t12-49.69a84.54,84.54,0,0,1,32.29-32.71A89.82,89.82,0,0,1,2010.49,147q22.23,0,38.58,9.64a78.72,78.72,0,0,1,26.42,25.16l2.93-27.67ZM2056,287.69q15.3-12,19.5-32.5V220.81a53.54,53.54,0,0,0-21-30A60.6,60.6,0,0,0,2018,179.3a56.93,56.93,0,0,0-28.72,7.54,55.56,55.56,0,0,0-21,21.18,61.22,61.22,0,0,0-7.75,30.82,60.27,60.27,0,0,0,8,30.61,60.93,60.93,0,0,0,21.39,22,55.32,55.32,0,0,0,29.35,8.18Q2040.69,299.64,2056,287.69Z"/><path class="cls-1" d="M2238.59,77.82v76.74H2286v31h-47.39V327.73h-39.41V185.59h-31.87v-31h31.87V77.82Z"/><path class="cls-1" d="M2337.55,76.15a24,24,0,0,1,16.35-6.29A23.22,23.22,0,0,1,2370,76.15a20.85,20.85,0,0,1,0,31,23.26,23.26,0,0,1-16.14,6.29,24,24,0,0,1-16.35-6.29,20.45,20.45,0,0,1,0-31Zm34.8,78V327.73h-39V154.14Z"/><path class="cls-1" d="M2437.55,192.51a88.54,88.54,0,0,1,34.38-33.34q22-12.15,49.69-12.16t49.27,12.16a86.9,86.9,0,0,1,33.54,33.13q12,21,12,47t-12,47.17a86.09,86.09,0,0,1-33.75,33.34q-21.81,12.15-49.9,12.16-27.27,0-49.06-11.54a84.87,84.87,0,0,1-34.17-32.49q-12.37-21-12.37-48.64A90.94,90.94,0,0,1,2437.55,192.51Zm34.38,77.36a56,56,0,0,0,20.13,21.8,52.35,52.35,0,0,0,28.3,8q24.32,0,40.25-17.19t15.94-42.77q0-25.58-15.94-43t-40.25-17.4a51.13,51.13,0,0,0-28.51,8.17,58.3,58.3,0,0,0-19.92,22,65.76,65.76,0,0,0,0,60.38Z"/><path class="cls-1" d="M2816.81,161.9q15.93,14.46,16.35,37.52V327.73h-39.41V212.84q-.86-14.67-8.81-23.06T2761,181q-23.05,0-38.16,18.45t-15.09,47v81.34h-39V154.14H2704l2.51,33.54a68.09,68.09,0,0,1,27.68-29.56q18.43-10.69,42.35-10.69Q2800.86,147.43,2816.81,161.9Z"/></g></g></svg>